<?xml version="1.0" encoding="UTF-8"?>
<svg xmlns="http://www.w3.org/2000/svg" xmlns:xlink="http://www.w3.org/1999/xlink" version="1.1" id="Layer_1" x="0px" y="0px" viewBox="0 0 512 512" style="enable-background:new 0 0 512 512;" xml:space="preserve">
<path style="fill:#A8DA64;" d="M302.546,116.364c0-51.412,41.678-93.091,93.091-93.091s93.091,41.678,93.091,93.091  s-41.678,93.091-93.091,93.091c-25.705,0-48.978-10.421-65.824-27.265"></path>
<path style="fill:#78B86D;" d="M395.637,232.727c-31.081,0-60.301-12.105-82.28-34.082c-9.089-9.087-9.089-23.822,0-32.912  c9.087-9.087,23.823-9.089,32.912,0c13.186,13.186,30.72,20.449,49.367,20.449c38.499,0,69.818-31.322,69.818-69.818  c0-38.498-31.319-69.818-69.818-69.818s-69.818,31.32-69.818,69.818c0,12.853-10.42,23.273-23.273,23.273  c-12.853,0-23.273-10.42-23.273-23.273c0-64.163,52.201-116.363,116.363-116.363S512,52.201,512,116.364  S459.799,232.727,395.637,232.727z"></path>
<polygon style="fill:#D6E5F6;" points="23.274,116.364 209.455,302.437 395.637,116.364 "></polygon>
<polygon style="fill:#BCD6F2;" points="209.455,116.364 209.455,302.437 395.637,116.364 "></polygon>
<path style="fill:#8CB7E8;" d="M412.087,132.826c6.659-6.654,8.653-16.666,5.052-25.364c-3.601-8.698-12.089-14.37-21.502-14.37  H23.274c-9.413,0-17.901,5.671-21.502,14.37c-3.603,8.698-1.609,18.71,5.05,25.364l179.361,179.254v153.375H116.31  c-12.853,0-23.273,10.418-23.273,23.273c0,12.851,10.42,23.273,23.273,23.273H302.6c12.853,0,23.273-10.422,23.273-23.273  c0-12.854-10.42-23.273-23.273-23.273h-69.872V312.079L412.087,132.826z M339.427,139.637L209.454,269.534L79.482,139.637H339.427z"></path>
<path style="fill:#6398DE;" d="M412.087,132.826c6.659-6.654,8.653-16.666,5.052-25.364c-3.601-8.698-12.089-14.37-21.502-14.37  H209.455v46.545h129.973L209.455,269.534v242.465H302.6c12.853,0,23.273-10.422,23.273-23.273c0-12.854-10.42-23.273-23.273-23.273  h-69.872V312.079L412.087,132.826z"></path>
<g>
</g>
<g>
</g>
<g>
</g>
<g>
</g>
<g>
</g>
<g>
</g>
<g>
</g>
<g>
</g>
<g>
</g>
<g>
</g>
<g>
</g>
<g>
</g>
<g>
</g>
<g>
</g>
<g>
</g>
</svg>
